<svg width="383" height="305" viewBox="0 0 383 305" fill="none" xmlns="http://www.w3.org/2000/svg">
<path d="M173.344 114.802C174.049 114.847 174.737 115.014 175.368 115.294C175.999 115.574 176.56 115.96 177.018 116.431L183.293 122.815L184.972 124.522C185.9 125.468 186.362 126.696 186.256 127.939C186.15 129.182 185.484 130.337 184.405 131.152L156.578 152.06L107.227 189.129C106.196 189.902 104.87 190.306 103.513 190.26C102.156 190.214 100.869 189.722 99.9096 188.882C99.8145 188.801 99.7312 188.72 99.6426 188.634L94.8393 183.749L91.684 180.537C91.4302 180.28 91.2091 180 91.0246 179.702C90.5401 178.911 90.3233 178.015 90.3996 177.12C90.4511 176.504 90.6423 175.902 90.9621 175.351C91.2819 174.799 91.7238 174.309 92.2623 173.908L98.1449 169.487L141.667 136.793L169.436 115.925C170.517 115.113 171.922 114.709 173.344 114.802Z" fill="#9E7E7E"/>
<path d="M187.89 95.351C163.44 95.351 143.618 78.0238 143.618 56.6496C143.618 35.2754 163.44 17.9482 187.89 17.9482C212.341 17.9482 232.163 35.2754 232.163 56.6496C232.163 78.0238 212.341 95.351 187.89 95.351Z" fill="#9E7E7E"/>
<path d="M199.229 205.257H211.439C212.864 205.258 214.231 205.754 215.239 206.635C216.247 207.516 216.814 208.711 216.815 209.957V298.91C216.814 300.156 216.247 301.351 215.239 302.232C214.231 303.113 212.864 303.609 211.439 303.61H199.229C197.803 303.609 196.436 303.113 195.428 302.232C194.42 301.351 193.853 300.156 193.852 298.91V209.957C193.853 208.711 194.42 207.516 195.428 206.635C196.436 205.754 197.803 205.258 199.229 205.257Z" fill="#2F2E41"/>
<path d="M173.428 205.257H185.637C187.063 205.258 188.43 205.754 189.438 206.635C190.446 207.516 191.013 208.711 191.014 209.957V298.91C191.013 300.156 190.446 301.351 189.438 302.232C188.43 303.113 187.063 303.609 185.637 303.61H173.428C172.722 303.61 172.022 303.489 171.37 303.252C170.718 303.016 170.125 302.67 169.626 302.233C169.126 301.797 168.73 301.279 168.46 300.709C168.19 300.138 168.051 299.527 168.051 298.91V209.957C168.051 209.34 168.19 208.729 168.46 208.158C168.73 207.588 169.126 207.07 169.626 206.634C170.125 206.197 170.718 205.851 171.37 205.615C172.022 205.378 172.722 205.257 173.428 205.257Z" fill="#2F2E41"/>
<path d="M173.993 222.13L214.776 221.196C216.557 221.156 218.311 220.808 219.937 220.174C221.564 219.539 223.03 218.63 224.254 217.498C225.477 216.367 226.432 215.035 227.065 213.579C227.697 212.124 227.994 210.573 227.939 209.017C227.132 186.272 225.206 137.052 225.187 136.573C225.187 130.358 222.963 124.298 218.826 119.242C214.689 114.187 208.847 110.39 202.118 108.382C195.388 106.375 188.109 106.258 181.3 108.048C174.491 109.838 168.493 113.445 164.147 118.364C159.515 123.549 157.004 129.94 157.015 136.518L143.204 189.445C142.182 193.36 142.182 197.427 143.203 201.342C144.225 205.258 146.242 208.922 149.105 212.063C151.968 215.204 155.603 217.741 159.741 219.486C163.879 221.231 168.413 222.139 173.008 222.143C173.335 222.143 173.664 222.138 173.993 222.13Z" fill="#2F2E41"/>
<path d="M146.941 65.5598L147.376 64.1639C144.406 63.4561 141.814 62.7322 140.185 61.0461C139.728 60.5476 139.4 59.9692 139.222 59.3499C139.045 58.7307 139.022 58.0853 139.155 57.4576C139.225 57.0717 139.396 56.7052 139.655 56.3865C139.914 56.0679 140.253 55.8057 140.647 55.6203C142.232 54.9286 144.261 55.6923 145.631 56.6381L146.813 57.4538L148.791 40.6162L147.145 40.4688L145.463 54.7913C144.655 54.3147 143.723 54.0224 142.752 53.9413C141.782 53.8601 140.804 53.9926 139.907 54.3267C139.288 54.6081 138.752 55.0107 138.34 55.5032C137.928 55.9957 137.653 56.5647 137.534 57.1658C137.35 58.0081 137.379 58.8754 137.618 59.707C137.858 60.5385 138.302 61.3142 138.921 61.9797C141.015 64.1467 144.301 64.9301 146.941 65.5598Z" fill="#2F2E41"/>
<path d="M157.608 43.9564L166.266 45.7949L165.876 47.2003L157.217 45.3618L157.608 43.9564Z" fill="#2F2E41"/>
<path d="M203.58 119.776C204.057 119.32 204.634 118.951 205.276 118.692C205.918 118.432 206.612 118.287 207.319 118.264L216.939 117.917L219.512 117.823C220.937 117.772 222.326 118.217 223.376 119.06C224.426 119.904 225.05 121.076 225.113 122.321L226.635 154.37L229.323 211.201C229.378 212.387 228.919 213.548 228.037 214.45C227.155 215.352 225.915 215.93 224.567 216.068C224.434 216.082 224.31 216.09 224.178 216.097L216.816 216.364L211.976 216.538C211.589 216.553 211.2 216.531 210.818 216.473C209.808 216.315 208.869 215.909 208.113 215.301C207.592 214.884 207.17 214.38 206.873 213.819C206.577 213.258 206.41 212.651 206.384 212.033L206.062 205.257L203.687 155.137L202.165 123.153C202.106 121.908 202.615 120.693 203.58 119.776Z" fill="#9E7E7E"/>
<path d="M210.628 112.761C211.656 112.571 212.704 112.476 213.755 112.479C217.812 112.483 221.702 113.894 224.571 116.402C227.44 118.91 229.054 122.31 229.059 125.857V150.443C229.056 151.221 228.834 151.987 228.411 152.672C227.988 153.358 227.378 153.941 226.635 154.37C226.029 154.718 225.347 154.955 224.633 155.064C224.319 155.116 224.001 155.143 223.682 155.143H203.828C203.781 155.145 203.734 155.142 203.687 155.136C202.287 155.105 200.956 154.597 199.978 153.72C199 152.843 198.452 151.668 198.451 150.443V125.857C198.456 122.784 199.668 119.806 201.885 117.422C204.102 115.038 207.188 113.392 210.628 112.761Z" fill="#2F2E41"/>
<path d="M142.184 131.099L163.948 115.53C167.088 113.282 171.122 112.217 175.161 112.569C179.2 112.921 182.913 114.661 185.485 117.406C188.056 120.152 189.274 123.678 188.872 127.208C188.469 130.739 186.479 133.985 183.338 136.233L161.574 151.802C160.615 152.489 159.415 152.864 158.175 152.866C156.936 152.867 155.735 152.494 154.774 151.809C154.488 151.616 154.229 151.392 154.005 151.144L141.431 137.716C140.986 137.245 140.651 136.702 140.447 136.118C140.137 135.225 140.137 134.271 140.446 133.378C140.755 132.485 141.36 131.692 142.184 131.099Z" fill="#2F2E41"/>
<path d="M187.448 33.1378C179.556 34.2244 171.036 35.4713 163.315 32.9853C156.991 30.9486 151.662 26.2952 151.796 20.1C151.924 14.1802 156.513 8.95068 162.276 6.19092C168.796 3.06912 176.737 2.57515 184.011 3.20014C188.406 3.57779 193.136 4.54616 196.57 7.1166C199.319 9.17412 201.439 12.2889 201.045 15.555L204.256 15.4813C203.004 11.8734 205.086 8.265 208.23 5.9306C212.01 3.12379 217.16 2.71429 221.864 3.5875C231.431 5.36345 240.08 11.281 246.433 17.5696C252.686 23.7796 257.198 31.1777 259.611 39.1772C262.313 48.1612 262.378 58.2317 258.223 66.8927C253.994 75.7076 244.788 82.9699 233.515 83.4999C231.382 83.6002 231.47 86.5093 233.617 86.4084C244.379 85.9025 253.897 79.8837 259.148 71.8303C265.182 62.5759 265.96 51.2025 263.5 40.9385C261.288 31.953 256.585 23.5799 249.806 16.5544C243.04 9.49345 233.545 2.95315 223.104 0.848542C217.105 -0.360708 210.793 0.272839 205.977 3.80605C201.865 6.8226 199.462 11.6901 201.068 16.3153C201.508 17.5849 204.097 17.7489 204.279 16.2417C205.201 8.59896 198.064 3.05386 190.219 1.21416C185.77 0.253604 181.18 -0.114468 176.605 0.122378C172.403 0.229216 168.248 0.92931 164.302 2.19552C156.859 4.69867 150.665 9.9047 148.918 16.8772C147.175 23.8332 151.029 30.2791 157.85 33.894C166.851 38.6648 177.673 37.4064 187.55 36.0464C187.986 36.0221 188.396 35.8538 188.695 35.5754C188.994 35.297 189.162 34.9295 189.162 34.5474C189.147 34.1624 188.958 33.7984 188.637 33.5345C188.316 33.2705 187.888 33.128 187.448 33.1378H187.448Z" fill="#2F2E41"/>
<path d="M1 304.284H382C382.265 304.284 382.52 304.191 382.707 304.027C382.895 303.864 383 303.641 383 303.409C383 303.177 382.895 302.955 382.707 302.791C382.52 302.627 382.265 302.535 382 302.535H1C0.734772 302.535 0.480438 302.627 0.292908 302.791C0.105377 302.955 0 303.177 0 303.409C0 303.641 0.105377 303.864 0.292908 304.027C0.480438 304.191 0.734772 304.284 1 304.284Z" fill="#3F3D56"/>
</svg>
